# xmcd
#
# Track frame offsets:
#	150
#	11380
#	21820
#	31890
#	45335
#	56725
#	70410
#	82437
#	94660
#	106542
#	117437
#	128900
#	141237
#	153122
#	166390
#	177152
#	190655
#	202177
#	212670
#	228067
#	240077
#	253410
#	264490
#	281845
#	294645
#	305890
#	323215
#	339250
#
# Disc length: 4715 seconds
#
# Revision: 0
# Processed by: cddbd v1.4PL0 Copyright (c) Steve Scherf et al.
# Submitted via: MusicWizard 6.0.0
#
DISCID=9012691c
DTITLE=Johnny Western - Heroes And Cowboys - Vol. 2
DYEAR=1993
DGENRE=Western
TTITLE0=Echo Of Your Voice
TTITLE1=Ten Years
TTITLE2=Uh Huh!
TTITLE3=Delia's Gone
TTITLE4=Time Has Run Out On Me
TTITLE5=Willowgreen
TTITLE6=Don't Cry Little Girl
TTITLE7=Darling Corey
TTITLE8=Stranger, Drive Away
TTITLE9=I Love You More
TTITLE10=All By My Lonesome
TTITLE11=Just For The Record
TTITLE12=Kathy, Come Home
TTITLE13=Only The Lonely
TTITLE14=Light The Fuse
TTITLE15=Tender Years
TTITLE16=Turn Around And Look At Me
TTITLE17=Sincerly, Your Friend
TTITLE18=Violet And A Rose
TTITLE19=Ruby, Don't Take Your Love To Town
TTITLE20=Used To
TTITLE21=I'll Try Hard To Forget You If I Can
TTITLE22=Whoever Finds This, I Love You
TTITLE23=The Last Time I Saw Phoenix
TTITLE24=The Hustler
TTITLE25=Forty Shades Of Green
TTITLE26=You Wouldn't Know Love
TTITLE27=Arizona Morning
EXTD=(c)1993 Bear Family
EXTT0=
EXTT1=
EXTT2=
EXTT3=
EXTT4=
EXTT5=
EXTT6=
EXTT7=
EXTT8=
EXTT9=
EXTT10=
EXTT11=
EXTT12=
EXTT13=
EXTT14=
EXTT15=
EXTT16=
EXTT17=
EXTT18=
EXTT19=
EXTT20=
EXTT21=
EXTT22=
EXTT23=
EXTT24=
EXTT25=
EXTT26=
EXTT27=
PLAYORDER=
